<mxfile host="app.diagrams.net" modified="2024-01-30T01:53:27.474Z" agent="Mozilla/5.0 (Windows NT 10.0; Win64; x64) AppleWebKit/537.36 (KHTML, like Gecko) Chrome/120.0.0.0 Safari/537.36" etag="PYK_HoVdMBSul19zvBPt" version="22.1.21" type="github">
  <diagram name="PaginÄƒ-1" id="vIDhXNmuk5xJyKKbSqlv">
    <mxGraphModel dx="1873" dy="530" grid="1" gridSize="10" guides="1" tooltips="1" connect="1" arrows="1" fold="1" page="1" pageScale="1" pageWidth="583" pageHeight="827" math="0" shadow="0">
      <root>
        <mxCell id="0" />
        <mxCell id="1" parent="0" />
        <mxCell id="pWQTEMfsyAh-jAWylup7-1" value="" style="rhombus;whiteSpace=wrap;html=1;" parent="1" vertex="1">
          <mxGeometry x="240" y="10" width="80" height="50" as="geometry" />
        </mxCell>
        <mxCell id="pWQTEMfsyAh-jAWylup7-2" value="&lt;div style=&quot;background-color: rgb(43, 43, 43); color: rgb(169, 183, 198); font-family: &amp;quot;JetBrains Mono&amp;quot;, monospace; font-size: 9.8pt;&quot;&gt;runUsersSync&lt;/div&gt;" style="ellipse;whiteSpace=wrap;html=1;aspect=fixed;" parent="1" vertex="1">
          <mxGeometry x="110" y="100" width="80" height="80" as="geometry" />
        </mxCell>
        <mxCell id="pWQTEMfsyAh-jAWylup7-4" value="&lt;div style=&quot;background-color: rgb(43, 43, 43); color: rgb(169, 183, 198); font-size: 9.8pt;&quot;&gt;&lt;font face=&quot;Times New Roman&quot;&gt;reads from file: auth/UsersGroup.xml&lt;/font&gt;&lt;/div&gt;&lt;div style=&quot;background-color: rgb(43, 43, 43); color: rgb(169, 183, 198); font-size: 9.8pt;&quot;&gt;&lt;font face=&quot;Times New Roman&quot;&gt;modified variable:&amp;nbsp;&lt;/font&gt;existingUsers&lt;/div&gt;&lt;div style=&quot;background-color: rgb(43, 43, 43); color: rgb(169, 183, 198); font-size: 9.8pt;&quot;&gt;&lt;font face=&quot;Times New Roman&quot;&gt;modified table: &lt;/font&gt;CompassUser (W, R),&amp;nbsp;UserGroupEntity (W, R) - syncs the tables&lt;/div&gt;" style="text;html=1;strokeColor=none;fillColor=none;align=center;verticalAlign=middle;whiteSpace=wrap;rounded=0;" parent="1" vertex="1">
          <mxGeometry x="-90" y="180" width="280" height="30" as="geometry" />
        </mxCell>
        <mxCell id="pWQTEMfsyAh-jAWylup7-6" value="&lt;div style=&quot;background-color: rgb(43, 43, 43); color: rgb(169, 183, 198); font-family: &amp;quot;JetBrains Mono&amp;quot;, monospace; font-size: 9.8pt;&quot;&gt;loadGroups&lt;/div&gt;" style="ellipse;whiteSpace=wrap;html=1;aspect=fixed;" parent="1" vertex="1">
          <mxGeometry x="292" y="100" width="80" height="80" as="geometry" />
        </mxCell>
        <mxCell id="pWQTEMfsyAh-jAWylup7-7" value="&lt;div style=&quot;background-color: rgb(43, 43, 43); color: rgb(169, 183, 198); font-size: 9.8pt;&quot;&gt;&lt;font face=&quot;Times New Roman&quot;&gt;reads from file: auth/UsersGroup.xml&lt;/font&gt;&lt;/div&gt;&lt;div style=&quot;background-color: rgb(43, 43, 43); color: rgb(169, 183, 198); font-size: 9.8pt;&quot;&gt;&lt;font face=&quot;Times New Roman&quot;&gt;modified variable: availableGroups&lt;/font&gt;&lt;/div&gt;" style="text;html=1;strokeColor=none;fillColor=none;align=center;verticalAlign=middle;whiteSpace=wrap;rounded=0;" parent="1" vertex="1">
          <mxGeometry x="219" y="190" width="280" height="30" as="geometry" />
        </mxCell>
        <mxCell id="pWQTEMfsyAh-jAWylup7-8" value="&lt;div style=&quot;background-color: rgb(43, 43, 43); color: rgb(169, 183, 198); font-family: &amp;quot;JetBrains Mono&amp;quot;, monospace; font-size: 9.8pt;&quot;&gt;syncUserAccess&lt;/div&gt;" style="ellipse;whiteSpace=wrap;html=1;aspect=fixed;" parent="1" vertex="1">
          <mxGeometry x="110" y="260" width="80" height="80" as="geometry" />
        </mxCell>
        <mxCell id="pWQTEMfsyAh-jAWylup7-9" value="&lt;div style=&quot;background-color: rgb(43, 43, 43); color: rgb(169, 183, 198); font-size: 9.8pt;&quot;&gt;&lt;font face=&quot;Times New Roman&quot;&gt;reads from file: user_acess/all files&lt;/font&gt;&lt;/div&gt;&lt;div style=&quot;background-color: rgb(43, 43, 43); color: rgb(169, 183, 198); font-size: 9.8pt;&quot;&gt;&lt;font face=&quot;Times New Roman&quot;&gt;modified table:&amp;nbsp;&lt;/font&gt;UserGroupEntity (reads entitites to update them)&lt;/div&gt;" style="text;html=1;strokeColor=none;fillColor=none;align=center;verticalAlign=middle;whiteSpace=wrap;rounded=0;" parent="1" vertex="1">
          <mxGeometry x="-50" y="340" width="280" height="30" as="geometry" />
        </mxCell>
        <mxCell id="pWQTEMfsyAh-jAWylup7-10" value="&lt;div style=&quot;background-color: rgb(43, 43, 43); color: rgb(169, 183, 198); font-family: &amp;quot;JetBrains Mono&amp;quot;, monospace; font-size: 9.8pt;&quot;&gt;&lt;div style=&quot;font-size: 9.8pt;&quot;&gt;syncGroups&lt;/div&gt;&lt;/div&gt;" style="ellipse;whiteSpace=wrap;html=1;aspect=fixed;" parent="1" vertex="1">
          <mxGeometry x="292" y="260" width="80" height="80" as="geometry" />
        </mxCell>
        <mxCell id="pWQTEMfsyAh-jAWylup7-11" value="&lt;div style=&quot;background-color: rgb(43, 43, 43); color: rgb(169, 183, 198); font-size: 9.8pt;&quot;&gt;&lt;font face=&quot;Times New Roman&quot;&gt;modified table:&amp;nbsp;&lt;/font&gt;Group (R, W) - syncs&lt;/div&gt;" style="text;html=1;strokeColor=none;fillColor=none;align=center;verticalAlign=middle;whiteSpace=wrap;rounded=0;" parent="1" vertex="1">
          <mxGeometry x="210" y="340" width="280" height="30" as="geometry" />
        </mxCell>
        <mxCell id="pWQTEMfsyAh-jAWylup7-12" value="" style="endArrow=classic;html=1;rounded=0;" parent="1" edge="1">
          <mxGeometry width="50" height="50" relative="1" as="geometry">
            <mxPoint x="340" y="230" as="sourcePoint" />
            <mxPoint x="340" y="250" as="targetPoint" />
          </mxGeometry>
        </mxCell>
        <mxCell id="pWQTEMfsyAh-jAWylup7-14" value="" style="endArrow=classic;html=1;rounded=0;" parent="1" edge="1">
          <mxGeometry width="50" height="50" relative="1" as="geometry">
            <mxPoint x="160" y="230" as="sourcePoint" />
            <mxPoint x="160" y="260" as="targetPoint" />
          </mxGeometry>
        </mxCell>
        <mxCell id="pWQTEMfsyAh-jAWylup7-15" value="&lt;div style=&quot;background-color: rgb(43, 43, 43); color: rgb(169, 183, 198); font-family: &amp;quot;JetBrains Mono&amp;quot;, monospace; font-size: 9.8pt;&quot;&gt;loadBrokers&lt;/div&gt;" style="ellipse;whiteSpace=wrap;html=1;" parent="1" vertex="1">
          <mxGeometry x="500" y="100" width="90" height="80" as="geometry" />
        </mxCell>
        <mxCell id="pWQTEMfsyAh-jAWylup7-16" value="&lt;div style=&quot;background-color: rgb(43, 43, 43); color: rgb(169, 183, 198); font-size: 9.8pt;&quot;&gt;&lt;font face=&quot;Times New Roman&quot;&gt;reads from file: pm_config/pm_brokers.xml&lt;/font&gt;&lt;/div&gt;&lt;div style=&quot;background-color: rgb(43, 43, 43); color: rgb(169, 183, 198); font-size: 9.8pt;&quot;&gt;&lt;font face=&quot;Times New Roman&quot;&gt;modified variable:&amp;nbsp;&lt;/font&gt;activeBrokerNames&lt;/div&gt;" style="text;html=1;strokeColor=none;fillColor=none;align=center;verticalAlign=middle;whiteSpace=wrap;rounded=0;" parent="1" vertex="1">
          <mxGeometry x="450" y="190" width="280" height="30" as="geometry" />
        </mxCell>
        <mxCell id="pWQTEMfsyAh-jAWylup7-17" value="&lt;div style=&quot;background-color: rgb(43, 43, 43); color: rgb(169, 183, 198); font-family: &amp;quot;JetBrains Mono&amp;quot;, monospace; font-size: 9.8pt;&quot;&gt;&lt;span style=&quot;color:#ffc66d;&quot;&gt;loadBAGWs&lt;/span&gt;&lt;/div&gt;" style="ellipse;whiteSpace=wrap;html=1;" parent="1" vertex="1">
          <mxGeometry x="730" y="100" width="80" height="70" as="geometry" />
        </mxCell>
        <mxCell id="pWQTEMfsyAh-jAWylup7-18" value="&lt;div style=&quot;background-color: rgb(43, 43, 43); color: rgb(169, 183, 198); font-size: 9.8pt;&quot;&gt;&lt;font face=&quot;Times New Roman&quot;&gt;reads from file: pm_config/bagw_config.xml&lt;/font&gt;&lt;/div&gt;&lt;div style=&quot;background-color: rgb(43, 43, 43); color: rgb(169, 183, 198); font-size: 9.8pt;&quot;&gt;&lt;font face=&quot;Times New Roman&quot;&gt;modified table:&amp;nbsp;&lt;/font&gt;BAGWConnection (W, R) updates them&lt;/div&gt;" style="text;html=1;strokeColor=none;fillColor=none;align=center;verticalAlign=middle;whiteSpace=wrap;rounded=0;" parent="1" vertex="1">
          <mxGeometry x="710" y="190" width="280" height="30" as="geometry" />
        </mxCell>
        <mxCell id="pWQTEMfsyAh-jAWylup7-19" value="&lt;div style=&quot;background-color: rgb(43, 43, 43); color: rgb(169, 183, 198); font-family: &amp;quot;JetBrains Mono&amp;quot;, monospace; font-size: 9.8pt;&quot;&gt;&lt;span style=&quot;color:#ffc66d;&quot;&gt;loadFIXGWSessions&lt;/span&gt;&lt;/div&gt;" style="ellipse;whiteSpace=wrap;html=1;" parent="1" vertex="1">
          <mxGeometry x="1070" y="105" width="80" height="60" as="geometry" />
        </mxCell>
        <mxCell id="pWQTEMfsyAh-jAWylup7-20" value="&lt;div style=&quot;background-color: rgb(43, 43, 43); color: rgb(169, 183, 198); font-size: 9.8pt;&quot;&gt;&lt;font face=&quot;Times New Roman&quot;&gt;reads from file:&amp;nbsp;&lt;/font&gt;fixgw_config/all&lt;/div&gt;&lt;div style=&quot;background-color: rgb(43, 43, 43); color: rgb(169, 183, 198); font-size: 9.8pt;&quot;&gt;&lt;font face=&quot;Times New Roman&quot;&gt;modified table:&amp;nbsp;&lt;/font&gt;FIXGWSession&lt;span style=&quot;font-size: 9.8pt;&quot;&gt;&amp;nbsp;(W, R) updates them&lt;/span&gt;&lt;br&gt;&lt;/div&gt;" style="text;html=1;strokeColor=none;fillColor=none;align=center;verticalAlign=middle;whiteSpace=wrap;rounded=0;" parent="1" vertex="1">
          <mxGeometry x="980" y="190" width="280" height="30" as="geometry" />
        </mxCell>
        <mxCell id="pWQTEMfsyAh-jAWylup7-21" value="&lt;div style=&quot;background-color: rgb(43, 43, 43); color: rgb(169, 183, 198); font-family: &amp;quot;JetBrains Mono&amp;quot;, monospace; font-size: 9.8pt;&quot;&gt;&lt;span style=&quot;color:#ffc66d;&quot;&gt;loadMarkets&lt;/span&gt;&lt;/div&gt;" style="ellipse;whiteSpace=wrap;html=1;" parent="1" vertex="1">
          <mxGeometry x="1320" y="100" width="90" height="70" as="geometry" />
        </mxCell>
        <mxCell id="pWQTEMfsyAh-jAWylup7-23" value="&lt;div style=&quot;background-color: rgb(43, 43, 43); color: rgb(169, 183, 198); font-size: 9.8pt;&quot;&gt;&lt;font face=&quot;Times New Roman&quot;&gt;reads from file:&amp;nbsp;&lt;/font&gt;pm_config/pm.properties&lt;/div&gt;&lt;div style=&quot;background-color: rgb(43, 43, 43); color: rgb(169, 183, 198); font-size: 9.8pt;&quot;&gt;&lt;font face=&quot;Times New Roman&quot;&gt;modified table:&amp;nbsp;&lt;/font&gt;Market&amp;nbsp;(W, R), Country&lt;/div&gt;&lt;span style=&quot;color: rgb(169, 183, 198); font-size: 13.0667px; background-color: rgb(43, 43, 43);&quot;&gt;(W, R), Market Generic&amp;nbsp;&lt;/span&gt;&lt;span style=&quot;color: rgb(169, 183, 198); font-size: 13.0667px; background-color: rgb(43, 43, 43);&quot;&gt;(W, R)&lt;/span&gt;&lt;span style=&quot;font-size: 9.8pt; background-color: rgb(43, 43, 43); color: rgb(169, 183, 198);&quot;&gt;, MarketSpecific (W,R),&amp;nbsp; updates them&lt;/span&gt;&lt;span style=&quot;color: rgb(169, 183, 198); font-size: 13.0667px; background-color: rgb(43, 43, 43);&quot;&gt;&lt;br&gt;&lt;/span&gt;" style="text;html=1;strokeColor=none;fillColor=none;align=center;verticalAlign=middle;whiteSpace=wrap;rounded=0;" parent="1" vertex="1">
          <mxGeometry x="1290" y="190" width="280" height="30" as="geometry" />
        </mxCell>
        <mxCell id="pWQTEMfsyAh-jAWylup7-24" value="&lt;div style=&quot;background-color: rgb(43, 43, 43); color: rgb(169, 183, 198); font-size: 9.8pt;&quot;&gt;&lt;font face=&quot;Times New Roman&quot;&gt;reads from file:&amp;nbsp;&lt;/font&gt;fixgw_config/all&lt;/div&gt;&lt;div style=&quot;background-color: rgb(43, 43, 43); color: rgb(169, 183, 198); font-size: 9.8pt;&quot;&gt;&lt;font face=&quot;Times New Roman&quot;&gt;modified table:&amp;nbsp;&lt;/font&gt;IOIBrokerEnablement (implicit Broker),&amp;nbsp;CompassConfigError, Broker, FixSession,&lt;/div&gt;&lt;span style=&quot;color: rgb(169, 183, 198); font-size: 13.0667px; background-color: rgb(43, 43, 43);&quot;&gt;&lt;br&gt;&lt;/span&gt;" style="text;html=1;strokeColor=none;fillColor=none;align=center;verticalAlign=middle;whiteSpace=wrap;rounded=0;" parent="1" vertex="1">
          <mxGeometry x="1620" y="190" width="280" height="30" as="geometry" />
        </mxCell>
      </root>
    </mxGraphModel>
  </diagram>
</mxfile>
